<?xml version="1.0" encoding="UTF-8"?>
<svg width="438.75" height="145.59" version="1.1" viewBox="0 0 438.75 145.59" xmlns="http://www.w3.org/2000/svg">
 <title>Gazprom</title>
 <g transform="matrix(.2783 0 0 .2783 493.71 -25.807)">
  <path d="m-1541.5 614.33c-76.211-8.5953-144.83-50.347-188.23-114.53-61.572-91.053-58.716-212.83 7.0679-301.33 10.015-13.474 31.47-35.961 44.514-46.655 41.93-34.375 96.044-55.632 148.32-58.262l16.333-0.82165v196l-12.333 0.8414c-16.423 1.1204-34.694 6.1964-51.189 14.222-80.596 39.211-107.81 139.64-58.239 214.89 18.854 28.618 51.375 51.766 85.126 60.589 16.323 4.2673 42.66 5.7025 59.49 3.2418 30.584-4.4719 59.769-19.019 81.668-40.705 20.173-19.978 27.582-45.54 20.84-71.901-3.3581-13.13-8.1414-21.927-17.362-31.931-14.558-15.794-32.501-23.654-54.103-23.698-18.37-0.0377-30.913 4.1031-45.564 15.042l-7 5.2264v-80.086h190.67v179.79l-12.333 11.12c-22.118 19.942-38.134 30.969-63.108 43.447-42.899 21.434-96.61 30.91-144.56 25.502zm280.67 0.26878c-9.1336-2.3189-16.877-8.5251-21.105-16.915-4.6299-9.1879-5.0312-19.429-4.6188-117.88 0.3714-88.661 0.5997-97.156 2.7571-102.58 3.6843-9.2542 8.6705-14.763 16.824-18.586 7.4218-3.4802 7.7078-3.5056 39.476-3.5056 22.479 0 33.708 0.51722 37.742 1.7384 7.3436 2.2232 15.255 9.3782 19.18 17.346 2.8687 5.8239 3.1084 8.1744 3.5259 34.582l0.4479 28.333h-50.896v-21.82c0-20.056-0.2235-22.104-2.7635-25.333-3.2877-4.1797-9.0963-4.6847-12.363-1.0748-2.0095 2.2204-2.2067 10.852-2.2067 96.591v94.153l2.9634 2.0756c4.1761 2.9251 7.3135 2.5866 11.097-1.1971l3.2728-3.2727v-61.455h-8v-26.667h58.667v47.758c0 52.38-0.4628 56.292-7.867 66.514-2.2602 3.1201-6.6003 6.7072-10.346 8.5515-6.2178 3.0611-7.6446 3.1856-39.12 3.4155-17.967 0.1312-34.467-0.21838-36.667-0.77694zm117.23-5.1283c1.4894-11.655 26.108-249.6 26.108-252.34 0-2.6629 0.594-2.6969 40.995-2.3494l40.996 0.3526 12.821 123c7.0516 67.651 13.209 126.3 13.683 130.33l0.8617 7.3318h-50.299l-0.7934-9.6667c-0.4363-5.3167-1.536-20.917-2.4437-34.667l-1.6505-25h-25.779l-0.7917 9.6667c-0.4355 5.3167-1.5207 20.917-2.4117 34.667l-1.6199 25h-50.485zm78.139-92.667c0.079-4.1764-8.2436-124.67-8.7945-127.33-0.9053-4.3731-4.5695-3.839-4.5736 0.66666-1e-3 2.0167-1.7969 29.467-3.9889 61-2.1921 31.533-3.9906 59.583-3.9967 62.333l-0.011 5h10.667c7.6277 0 10.676-0.47484 10.698-1.6667zm77.302 83.943v-15.057l24.571-95.943c13.514-52.769 24.979-97.593 25.478-99.61l0.90705-3.6667h-45.622v-32h98.667v30.799l-24.747 96.934c-13.611 53.314-25.052 97.984-25.423 99.267-0.62764 2.1672 1.2298 2.3333 26.081 2.3333h26.757v32h-106.67zm132-115.7v-130.76l94 0.84954 7.7994 3.8297c5.8488 2.8719 8.7749 5.3678 11.7 9.9795 7.0114 11.056 7.1677 12.615 7.1677 71.524 0 60.878-0.5123 65.176-8.9093 74.739-8.1423 9.2736-12.351 10.514-37.424 11.028l-22.333 0.45776v89.109h-52zm66.331 6.0995c2.9919-3.4783 3.0021-3.6501 3.0021-50.81v-47.32l-3.2727-3.2727c-2.3961-2.3961-4.7175-3.2727-8.6667-3.2727h-5.3939v109.68l5.6646-0.75979c3.8341-0.51425 6.6347-1.8876 8.6667-4.2499zm83.002-6.1006v-130.76l46.333 0.52502c50.096 0.56767 52.33 0.86054 60.987 7.9968 11.776 9.7071 12.95 17.29 12.43 80.33-0.4154 50.41-0.4338 50.7-3.6233 57.179-2.2189 4.5079-4.9765 7.5863-8.9579 10-3.1636 1.918-5.771 4.002-5.7942 4.6311-0.035 0.95718 22.718 91.37 24.794 98.523 0.629 2.1672-1.2278 2.3333-26.079 2.3333-16.844 0-26.756-0.49107-26.756-1.3256 0-2.5864-17.348-95.134-17.945-95.731-0.3337-0.33367-1.5325-0.25139-2.6642 0.18286-1.8017 0.6914-2.0575 6.7608-2.0575 48.831v48.042h-50.667zm65.51-1.1279c3.3552-4.1436 4.0976-15.349 3.6011-54.351-0.4203-33.007-0.5967-35.11-3.2453-38.667-2.2564-3.0303-4.0059-3.8405-9-4.1678l-6.1992-0.40639v101.83l6.2808-0.70792c4.1782-0.47095 7.0446-1.6513 8.5626-3.5259zm113.4 129.35c-9.0438-3.1235-15.454-9.3615-19.247-18.729l-2.9968-7.402v-102c0-94.459 0.1745-102.44 2.3595-107.91 3.6988-9.2621 8.6817-14.765 16.831-18.586 7.435-3.4864 7.6546-3.5056 40.143-3.5056 37.76 0 41.398 0.76623 50.494 10.634 9.8796 10.718 9.6172 7.2354 9.2046 122.15l-0.3657 101.88-3.5056 7.476c-2.0356 4.3412-5.5047 9.0008-8.2732 11.112-8.5061 6.4879-14.479 7.4157-47.433 7.3681-25.689-0.0371-31.165-0.40388-37.211-2.4922zm43.15-32.737 3.2727-3.2727v-91.482c0-91.684-0.1701-95.373-4.5329-98.286-2.5545-1.7056-7.8345-1.1012-10.362 1.1862-2.3182 2.0979-2.4383 6.8278-2.4383 96 0 92.016 0.051 93.844 2.6666 96.46 3.5671 3.5671 7.4261 3.3618 11.394-0.60606zm84.606-95.394v-130.67h66.455l0.7487 3.6667c0.4117 2.0167 7.9733 42.967 16.803 91 8.8302 48.033 16.271 87.933 16.536 88.667 0.2643 0.73333 0.8101 0.43333 1.2128-0.66667s8.0116-41.6 16.909-90c8.8971-48.4 16.478-89.05 16.846-90.333 0.6148-2.1419 3.3967-2.3333 33.913-2.3333h33.244v261.33h-50.667v-82c0-65.529-0.3412-82-1.6984-82-1.2113 0-5.5428 23.423-15.102 81.667l-13.404 81.667-41.17 0.7312-13.364-81.605c-8.5631-52.288-13.945-81.798-14.98-82.143-1.2537-0.41791-1.6157 17.857-1.6157 81.573v82.111h-50.667z" style="fill:#007ac6;stroke-width:1.3333"/>
 </g>
</svg>
