<?xml version="1.0" encoding="utf-8"?>
<!-- Generator: Adobe Illustrator 21.0.0, SVG Export Plug-In . SVG Version: 6.00 Build 0)  -->
<svg version="1.1" id="Layer_1" xmlns="http://www.w3.org/2000/svg" xmlns:xlink="http://www.w3.org/1999/xlink" x="0px" y="0px"
	 viewBox="0 0 87 100" style="enable-background:new 0 0 87 100;" xml:space="preserve">
<style type="text/css">
	.st0{fill:#005164;}
	.st1{fill:#72BF44;}
	.st2{fill:#FFFFFF;}
</style>
<g>
	<path class="st0" d="M87,94.6c0,2.9-2.5,5.4-5.5,5.4h-76c-3,0-5.5-2.4-5.5-5.4V20.4c0-3,2.5-5.4,5.5-5.4h76c3,0,5.5,2.4,5.5,5.4
		V94.6L87,94.6z"/>
	<path class="st1" d="M9,85l-3,5.6c-0.1,0.1-0.1,0.3-0.1,0.4c0,0.2,0.3,0.4,0.6,0.4c0.3,0,0.5-0.1,0.6-0.3c0,0,2.7-5.2,2.7-5.4
		c0.1,0.2,2.7,5.4,2.7,5.4c0.1,0.2,0.3,0.3,0.6,0.3c0.4,0,0.6-0.2,0.6-0.4c0-0.1-0.1-0.2-0.1-0.4l-3-5.6c-0.2-0.4-0.5-0.5-0.9-0.5
		C9.4,84.4,9.1,84.6,9,85"/>
	<path class="st1" d="M44.2,85l-3,5.6c-0.1,0.1-0.1,0.3-0.1,0.4c0,0.2,0.3,0.4,0.6,0.4s0.5-0.1,0.6-0.3c0,0,2.7-5.2,2.7-5.4
		c0.1,0.2,2.7,5.4,2.7,5.4c0.1,0.2,0.3,0.3,0.6,0.3c0.4,0,0.6-0.2,0.6-0.4c0-0.1-0.1-0.2-0.1-0.4L46,85c-0.2-0.4-0.5-0.5-0.9-0.5
		C44.7,84.4,44.4,84.6,44.2,85"/>
	<path class="st1" d="M21.7,84.9c0,0-1.7,4-2,4.7c-0.1-0.2-2-4.7-2-4.7c-0.1-0.3-0.4-0.5-0.9-0.5s-0.9,0.2-1,0.7l-1.3,5.3
		c0,0.2-0.1,0.3-0.1,0.4c0,0.3,0.2,0.5,0.6,0.5c0.3,0,0.6,0,0.7-0.4c0,0,1-4.9,1.1-5.2C17,86,19,90.9,19,90.9
		c0.1,0.3,0.4,0.4,0.7,0.4c0.2,0,0.5,0,0.7-0.4c0,0,1.8-4.4,2.2-5.2c0.1,0.3,1.1,5.2,1.1,5.2c0.1,0.4,0.4,0.4,0.7,0.4
		c0.4,0,0.6-0.2,0.6-0.5c0-0.1,0-0.2-0.1-0.4l-1.3-5.3c-0.1-0.4-0.5-0.7-1-0.7C22.1,84.4,21.8,84.6,21.7,84.9"/>
	<path class="st1" d="M26.7,84.5c-0.4,0-0.7,0.2-0.7,0.5v5.8c0,0.3,0.3,0.5,0.7,0.5h3.4c0.4,0,0.6-0.2,0.6-0.4
		c0-0.3-0.2-0.5-0.6-0.5h-2.8v-2h2.5c0.4,0,0.6-0.2,0.6-0.4c0-0.3-0.2-0.4-0.6-0.4h-2.5v-2h2.8c0.4,0,0.6-0.2,0.6-0.5
		s-0.2-0.4-0.6-0.4L26.7,84.5L26.7,84.5z"/>
	<path class="st1" d="M39,84.9v5.9c0,0.3,0.3,0.5,0.7,0.5s0.7-0.2,0.7-0.5v-5.9c0-0.3-0.3-0.5-0.7-0.5C39.2,84.4,39,84.6,39,84.9"/>
	<path class="st1" d="M33.3,87.5v-2.2h1.5c1,0,1.7,0.5,1.7,1.1c0,0.8-0.5,1.2-1.7,1.2L33.3,87.5L33.3,87.5z M37.7,90.5
		c0,0-2.6-2-2.9-2.2c0.1,0,0.3,0,0.3,0c1.7,0,2.6-0.7,2.6-2c0-1.2-1.5-1.9-3-1.9h-2.2c-0.4,0-0.7,0.2-0.7,0.5v5.8
		c0,0.3,0.3,0.5,0.7,0.5s0.7-0.2,0.7-0.5v-2.4c0.2,0.2,3.5,2.7,3.5,2.7c0.1,0.1,0.3,0.2,0.6,0.2s0.6-0.2,0.6-0.4
		C38,90.8,37.9,90.6,37.7,90.5"/>
	<path class="st2" d="M59.6,85l-3,5.6c-0.1,0.1-0.1,0.3-0.1,0.4c0,0.2,0.3,0.4,0.6,0.4s0.5-0.1,0.6-0.3c0,0,2.7-5.2,2.7-5.4
		c0.1,0.2,2.7,5.4,2.7,5.4c0.1,0.2,0.3,0.3,0.6,0.3c0.4,0,0.6-0.2,0.6-0.4c0-0.1-0.1-0.2-0.1-0.4l-3-5.6c-0.2-0.4-0.5-0.5-0.9-0.5
		C60.1,84.5,59.8,84.7,59.6,85"/>
	<path class="st2" d="M65.4,84.9v5.9c0,0.3,0.3,0.5,0.7,0.5c0.4,0,0.6-0.2,0.6-0.5v-5.9c0-0.3-0.3-0.5-0.6-0.5
		C65.7,84.4,65.4,84.6,65.4,84.9"/>
	<path class="st2" d="M71.6,84.9v5.9c0,0.3,0.3,0.5,0.7,0.5c0.4,0,0.7-0.2,0.7-0.5v-5.9c0-0.3-0.3-0.5-0.7-0.5
		C71.8,84.4,71.6,84.6,71.6,84.9"/>
	<path class="st2" d="M74.4,84.9v5.9c0,0.3,0.3,0.5,0.7,0.5c0.4,0,0.6-0.2,0.6-0.5v-5.9c0-0.3-0.3-0.5-0.6-0.5
		C74.6,84.4,74.4,84.6,74.4,84.9"/>
	<path class="st2" d="M80.1,84.4l-4.7,3.1c-0.2,0.2-0.3,0.4-0.1,0.7c0.2,0.2,0.4,0.3,0.7,0.1l4.7-3.1c0.2-0.2,0.3-0.4,0.1-0.7
		C80.6,84.3,80.4,84.2,80.1,84.4"/>
	<path class="st2" d="M81,90.6l-4.7-3.3c-0.2-0.2-0.6-0.1-0.8,0.1c-0.2,0.2-0.1,0.5,0.1,0.7l4.7,3.3c0.2,0.2,0.7,0.1,0.9-0.1
		C81.3,91,81.2,90.7,81,90.6"/>
	<path class="st2" d="M72.5,90.4l-5.7-5.6c-0.3-0.3-0.8-0.4-1-0.2c-0.2,0.2-0.2,0.5,0.1,0.8l5.7,5.6c0.3,0.3,0.8,0.4,1,0.2
		C72.8,91,72.7,90.7,72.5,90.4"/>
	<path class="st2" d="M50,85v5.8c0,0.3,0.3,0.5,0.7,0.5s0.6-0.2,0.6-0.5V85c0-0.3-0.3-0.5-0.6-0.5C50.2,84.5,50,84.7,50,85"/>
	<path class="st2" d="M50.6,91.3h2.6c0,0,2.8,0,2.8-2c0-0.6-0.3-1-0.7-1.2c-0.5-0.3-1.2-0.4-1.2-0.4s1.1-0.4,1.1-1.4
		c0-0.5-0.3-0.9-0.6-1.1c-0.7-0.5-2.2-0.6-2.2-0.6h-1.9l-0.1,0.2l0.7,0.7h1.4c0,0,1.5,0,1.5,0.8c0,0.9-1,1.1-1,1.1h-1.8v0.8h2
		c0,0,0.6-0.1,1.1,0.3c0.2,0.2,0.5,0.5,0.5,0.8c0,1.1-1.4,1.2-1.4,1.2h-2.3L50.6,91.3z"/>
	<path class="st1" d="M71.7,69.9L50.1,29.5c-1.3-2.6-3.5-3.9-6.6-3.9s-5.2,1.3-6.6,3.9L15.3,69.9c-0.5,1-1,2.1-1,2.8
		c0,1.8,1.9,3,4.6,3c2.2,0,3.7-0.8,4.6-2.5c0,0,19.4-38.1,20.1-39.3c0.6,1.3,20.1,39.3,20.1,39.3c0.9,1.7,2.4,2.5,4.6,2.5
		c2.7,0,4.6-1.2,4.6-3C72.7,72,72.2,70.9,71.7,69.9"/>
</g>
</svg>
